<?xml version="1.0" encoding="utf-8"?>
<!-- Generator: Adobe Illustrator 19.1.1, SVG Export Plug-In . SVG Version: 6.00 Build 0)  -->
<svg version="1.1" id="Capa_1" xmlns="http://www.w3.org/2000/svg" xmlns:xlink="http://www.w3.org/1999/xlink" x="0px" y="0px"
	 viewBox="-653 358.7 612 564.7" style="enable-background:new -653 358.7 612 564.7;" xml:space="preserve">
<style type="text/css">
	.st0{fill:#FFFFFF;}
</style>
<g>
	<path class="st0" d="M-86.8,417.9h-60v-33.3c0-14-11.9-25.9-25.9-25.9h-37c-14,0-25.9,11.9-25.9,25.9v33.3h-219.8v-33.3
		c0-14-11.9-25.9-25.9-25.9h-37c-14,0-25.9,11.9-25.9,25.9v33.3h-62.9c-25.1,0-45.9,20.7-45.9,45.9v413.6
		c0,25.1,20.7,45.9,45.9,45.9h520.2c25.1,0,45.9-20.7,45.9-45.9V463.8C-41,438.6-61.7,417.9-86.8,417.9z M-208.2,386.8h34.1v45.2
		v36.2h-34.1v-36.2V386.8z M-516.8,386.8h34.1v45.2v36.2h-34.1v-36.2V386.8L-516.8,386.8z M-606.3,445.3h62.9v24.4
		c0,14,11.9,25.9,25.9,25.9h37c14,0,25.9-11.9,25.9-25.9v-24.4h219.1v24.4c0,14,11.9,25.9,25.9,25.9h37c14,0,25.9-11.9,25.9-25.9
		v-24.4h60.7c10.3,0,18.5,8.2,18.5,18.5v74h-557.3v-74C-624.8,453.4-616.7,445.3-606.3,445.3z M-86.8,895.9h-519.5
		c-10.3,0-18.5-8.2-18.5-18.5V565.1h556.5v312.3C-68.3,887.8-76.5,895.9-86.8,895.9z M-504.2,639.9c0,7.4-5.9,13.3-13.3,13.3h-44.4
		c-7.4,0-13.3-5.9-13.3-13.3c0-7.4,5.9-13.3,13.3-13.3h44.4C-510.1,625.8-504.2,632.5-504.2,639.9z M-376.2,639.9
		c0,7.4-5.9,13.3-13.3,13.3h-44.4c-7.4,0-13.3-5.9-13.3-13.3c0-7.4,5.9-13.3,13.3-13.3h44.4C-382.8,625.8-376.2,632.5-376.2,639.9z
		 M-248.9,639.9c0,7.4-5.9,13.3-13.3,13.3h-44.4c-7.4,0-13.3-5.9-13.3-13.3c0-7.4,5.9-13.3,13.3-13.3h44.4
		C-254.8,625.8-248.9,632.5-248.9,639.9z M-120.9,639.9c0,7.4-5.9,13.3-13.3,13.3h-44.4c-7.4,0-13.3-5.9-13.3-13.3
		c0-7.4,5.9-13.3,13.3-13.3h44.4C-126.8,625.8-120.9,632.5-120.9,639.9z M-504.2,730.9c0,7.4-5.9,13.3-13.3,13.3h-44.4
		c-7.4,0-13.3-5.9-13.3-13.3c0-7.4,5.9-13.3,13.3-13.3h44.4C-510.1,717.6-504.2,723.5-504.2,730.9z M-376.2,730.9
		c0,7.4-5.9,13.3-13.3,13.3h-44.4c-7.4,0-13.3-5.9-13.3-13.3c0-7.4,5.9-13.3,13.3-13.3h44.4C-382.8,717.6-376.2,723.5-376.2,730.9z
		 M-248.9,730.9c0,7.4-5.9,13.3-13.3,13.3h-44.4c-7.4,0-13.3-5.9-13.3-13.3c0-7.4,5.9-13.3,13.3-13.3h44.4
		C-254.8,717.6-248.9,723.5-248.9,730.9z M-120.9,730.9c0,7.4-5.9,13.3-13.3,13.3h-44.4c-7.4,0-13.3-5.9-13.3-13.3
		c0-7.4,5.9-13.3,13.3-13.3h44.4C-126.8,717.6-120.9,723.5-120.9,730.9z M-504.2,822.7c0,7.4-5.9,13.3-13.3,13.3h-44.4
		c-7.4,0-13.3-5.9-13.3-13.3c0-7.4,5.9-13.3,13.3-13.3h44.4C-510.1,808.6-504.2,814.5-504.2,822.7z M-376.2,822.7
		c0,7.4-5.9,13.3-13.3,13.3h-44.4c-7.4,0-13.3-5.9-13.3-13.3c0-7.4,5.9-13.3,13.3-13.3h44.4C-382.8,808.6-376.2,814.5-376.2,822.7z
		 M-248.9,822.7c0,7.4-5.9,13.3-13.3,13.3h-44.4c-7.4,0-13.3-5.9-13.3-13.3c0-7.4,5.9-13.3,13.3-13.3h44.4
		C-254.8,808.6-248.9,814.5-248.9,822.7z M-120.9,822.7c0,7.4-5.9,13.3-13.3,13.3h-44.4c-7.4,0-13.3-5.9-13.3-13.3
		c0-7.4,5.9-13.3,13.3-13.3h44.4C-126.8,808.6-120.9,814.5-120.9,822.7z"/>
</g>
</svg>
