<?xml version="1.0" encoding="utf-8"?>
<!-- Generator: Adobe Illustrator 19.1.1, SVG Export Plug-In . SVG Version: 6.00 Build 0)  -->
<svg version="1.1" id="Capa_1" xmlns="http://www.w3.org/2000/svg" xmlns:xlink="http://www.w3.org/1999/xlink" x="0px" y="0px"
	 viewBox="-173 -26 612 612" style="enable-background:new -173 -26 612 612;" xml:space="preserve">
<style type="text/css">
	.st0{fill:#FFFFFF;}
</style>
<g>
	<path class="st0" d="M183.8,280L428.5,35.3c14-14,14-36.8,0-50.8c-14-14-36.7-14-50.8,0L133,229.2L-111.7-15.4
		c-14-14-36.8-14-50.8,0c-14,14-14,36.7,0,50.8L82.2,280l-244.7,244.7c-14,14-14,36.8,0,50.8c7,7,16.2,10.5,25.4,10.5
		c9.2,0,18.4-3.5,25.4-10.5L133,330.8l244.7,244.7c7,7,16.2,10.5,25.4,10.5c9.2,0,18.4-3.5,25.4-10.5c14-14,14-36.8,0-50.8
		L183.8,280z"/>
</g>
</svg>
