<?xml version="1.0" encoding="utf-8"?>
<!-- Generator: Adobe Illustrator 19.1.1, SVG Export Plug-In . SVG Version: 6.00 Build 0)  -->
<svg version="1.1" id="Capa_1" xmlns="http://www.w3.org/2000/svg" xmlns:xlink="http://www.w3.org/1999/xlink" x="0px" y="0px"
	 viewBox="-681.9 382.6 478.1 516.4" style="enable-background:new -681.9 382.6 478.1 516.4;" xml:space="preserve">
<style type="text/css">
	.st0{fill:#FFFFFF;}
</style>
<g>
	<g>
		<rect x="-567.1" y="573.9" class="st0" width="248.6" height="19.1"/>
		<rect x="-567.1" y="516.5" class="st0" width="248.6" height="19.1"/>
		<path class="st0" d="M-261.1,543.3v-65c0-21-17.2-38.3-38.3-38.3h-78.4l-65-57.4l-65,57.4h-78.4c-21,0-38.3,17.2-38.3,38.3v65
			l-57.4,49.7v267.8c0,21,17.2,38.3,38.3,38.3H-242c21,0,38.3-17.2,38.3-38.3V593L-261.1,543.3z M-261.1,568.1l28.7,24.9l-28.7,24.9
			V568.1z M-442.8,407.5l36.3,32.5h-74.6L-442.8,407.5z M-605.4,478.3c0-11.5,7.7-19.1,19.1-19.1h286.9c9.6,0,19.1,9.6,19.1,19.1
			v154.9l-61.2,55.5h-202.7l-61.2-53.5V478.3z M-404.6,746L-404.6,746h-65h32.5h-44l-42.1-38.3h158.7L-404.6,746L-404.6,746z
			 M-624.5,568.1v51.6l-28.7-26.8L-624.5,568.1z M-657,874.1c-3.8-3.8-5.7-7.6-5.7-13.4V736.4V612.1l153,133.9L-657,874.1z
			 M-634.1,879.9l133.9-114.8h114.8l133.9,114.8H-634.1z M-222.9,736.4v124.3c0,5.7-1.9,9.6-5.7,13.4L-375.9,746l153-133.9V736.4z"
			/>
		<rect x="-567.1" y="631.3" class="st0" width="248.6" height="19.1"/>
	</g>
</g>
</svg>
