<?xml version="1.0" encoding="utf-8"?>
<!-- Generator: Adobe Illustrator 19.1.1, SVG Export Plug-In . SVG Version: 6.00 Build 0)  -->
<svg version="1.1" id="Capa_1" xmlns="http://www.w3.org/2000/svg" xmlns:xlink="http://www.w3.org/1999/xlink" x="0px" y="0px"
	 viewBox="-447 248 65 65" style="enable-background:new -447 248 65 65;" xml:space="preserve">
<style type="text/css">
	.st0{fill:#FFFFFF;}
</style>
<g>
	<g>
		<g>
			<path class="st0" d="M-414.2,304.5c-13.5,0-24.5-11-24.5-24.5c0-13.5,11-24.5,24.5-24.5c13.5,0,24.5,11,24.5,24.5
				C-389.7,293.5-400.7,304.5-414.2,304.5z M-414.2,259.5c-11.3,0-20.5,9.2-20.5,20.5c0,11.3,9.2,20.5,20.5,20.5
				c11.3,0,20.5-9.2,20.5-20.5C-393.7,268.6-402.9,259.5-414.2,259.5z"/>
		</g>
		<g>
			<g>
				<path class="st0" d="M-425.9,269.3c-0.3,0-0.5-0.1-0.7-0.3c-0.4-0.4-0.4-1,0.1-1.4c2-1.8,4.4-3.2,7-3.9c0.5-0.1,1.1,0.2,1.2,0.7
					c0.1,0.5-0.2,1.1-0.7,1.2c-2.3,0.6-4.4,1.8-6.2,3.4C-425.4,269.3-425.7,269.3-425.9,269.3z"/>
			</g>
			<g>
				<path class="st0" d="M-430.1,275.6c-0.1,0-0.2,0-0.3-0.1c-0.5-0.2-0.8-0.8-0.6-1.3c0.3-0.8,0.6-1.6,1-2.3
					c0.3-0.5,0.9-0.7,1.4-0.4c0.5,0.3,0.7,0.9,0.4,1.4c-0.4,0.7-0.7,1.4-0.9,2.1C-429.3,275.4-429.7,275.6-430.1,275.6z"/>
			</g>
		</g>
		<g>
			<path class="st0" d="M-413.6,266c-1.1,0-2-0.9-2-2v-14c0-1.1,0.9-2,2-2c1.1,0,2,0.9,2,2v14C-411.6,265.1-412.5,266-413.6,266z"/>
		</g>
		<g>
			<path class="st0" d="M-413.6,313c-1.1,0-2-0.9-2-2v-14c0-1.1,0.9-2,2-2c1.1,0,2,0.9,2,2v14C-411.6,312.1-412.5,313-413.6,313z"/>
		</g>
		<g>
			<path class="st0" d="M-384,283h-14c-1.1,0-2-0.9-2-2s0.9-2,2-2h14c1.1,0,2,0.9,2,2S-382.9,283-384,283z"/>
		</g>
		<g>
			<path class="st0" d="M-431,283h-14c-1.1,0-2-0.9-2-2s0.9-2,2-2h14c1.1,0,2,0.9,2,2S-429.9,283-431,283z"/>
		</g>
	</g>
</g>
</svg>
