<?xml version="1.0" encoding="utf-8"?>
<!-- Generator: Adobe Illustrator 19.1.1, SVG Export Plug-In . SVG Version: 6.00 Build 0)  -->
<svg version="1.1" id="Layer_1" xmlns="http://www.w3.org/2000/svg" xmlns:xlink="http://www.w3.org/1999/xlink" x="0px" y="0px"
	 viewBox="0 0 76 80" style="enable-background:new 0 0 76 80;" xml:space="preserve">
<style type="text/css">
	.st0{fill:#FFFFFF;}
</style>
<g>
	<path class="st0" d="M74.2,25.3h-1.9c0-0.7-0.1-1.3-0.2-2c-0.1-1-1-1.7-2-1.6c-1,0.1-1.7,1-1.6,2c0.1,0.5,0.1,1.1,0.1,1.6h-3.6
		C64.2,11.2,52.4,0,38,0S11.9,11.2,10.9,25.3H7.3c0-0.5,0.1-1.1,0.1-1.6c0.1-1-0.6-1.9-1.6-2c-1-0.1-1.9,0.6-2,1.6
		c-0.1,0.7-0.1,1.3-0.2,2H1.8c-1,0-1.8,0.8-1.8,1.8c0,1,0.8,1.8,1.8,1.8h1.9c0.9,16.5,13.5,30,29.6,32.3v15.2H19.1
		c-1,0-1.8,0.8-1.8,1.8s0.8,1.8,1.8,1.8h37.1c1,0,1.8-0.8,1.8-1.8s-0.8-1.8-1.8-1.8H42.7V61.2C58.9,59,71.5,45.5,72.4,29h1.9
		c1,0,1.8-0.8,1.8-1.8C76,26.1,75.2,25.3,74.2,25.3z M38,3.6c13,0,23.5,10.6,23.5,23.5S51,50.7,38,50.7S14.5,40.1,14.5,27.1
		S25,3.6,38,3.6z M39.1,76.4h-2.2V61.5c0.4,0,0.7,0,1.1,0s0.7,0,1.1,0V76.4z M40.7,57.8C40.7,57.8,40.7,57.8,40.7,57.8
		c-0.9,0.1-1.8,0.1-2.7,0.1c-0.9,0-1.8,0-2.7-0.1c0,0,0,0,0,0C20.2,56.5,8.2,44.2,7.3,29h3.6C11.9,43.1,23.6,54.3,38,54.3
		S64.2,43.1,65.1,29h3.6C67.8,44.2,55.8,56.5,40.7,57.8z"/>
	<path class="st0" d="M34.7,26.9c0.4,0.4,0.8,0.5,1.3,0.5s0.9-0.2,1.3-0.5L50.2,14c0.7-0.7,0.7-1.9,0-2.6c-0.7-0.7-1.9-0.7-2.6,0
		L34.7,24.3C34,25,34,26.2,34.7,26.9z"/>
	<path class="st0" d="M29.6,29.4l-7.3,7.3c-0.7,0.7-0.7,1.9,0,2.6c0.4,0.4,0.8,0.5,1.3,0.5s0.9-0.2,1.3-0.5l7.3-7.3
		c0.7-0.7,0.7-1.9,0-2.6C31.5,28.7,30.3,28.7,29.6,29.4z"/>
	<path class="st0" d="M41,7.8c-0.7-0.7-1.9-0.7-2.6,0L18.7,27.5c-0.7,0.7-0.7,1.9,0,2.6c0.4,0.4,0.8,0.5,1.3,0.5s0.9-0.2,1.3-0.5
		L41,10.4C41.7,9.7,41.7,8.6,41,7.8z"/>
</g>
</svg>
