<?xml version="1.0" encoding="utf-8"?>
<!-- Generator: Adobe Illustrator 19.1.1, SVG Export Plug-In . SVG Version: 6.00 Build 0)  -->
<svg version="1.1" id="Capa_1" xmlns="http://www.w3.org/2000/svg" xmlns:xlink="http://www.w3.org/1999/xlink" x="0px" y="0px"
	 viewBox="-787 487.6 344.2 306.7" style="enable-background:new -787 487.6 344.2 306.7;" xml:space="preserve">
<style type="text/css">
	.st0{fill:#FFFFFF;}
</style>
<g>
	<path class="st0" d="M-443.2,497.6c0-5.5-4.5-10-10-10h-227.2c-5.5,0-10,4.5-10,10v194.2c-10.3-8.9-23.6-14.3-38.2-14.3
		c-32.2,0-58.4,26.2-58.4,58.4c0,32.2,26.2,58.4,58.4,58.4c32.2,0,58.4-26.2,58.4-58.4c0-2.9-0.2-175.9-0.2-175.9h207.2v131.7
		c-10.2-8.8-23.5-14.1-38-14.1c-32.2,0-58.4,26.2-58.4,58.4c0,32.2,26.2,58.4,58.4,58.4c32.2,0,58.4-26.2,58.4-58.4
		C-442.8,732.9-443.2,497.6-443.2,497.6z M-728.6,774.3c-21.2,0-38.4-17.2-38.4-38.4c0-21.2,17.2-38.4,38.4-38.4
		c21.2,0,38.4,17.2,38.4,38.4C-690.2,757-707.4,774.3-728.6,774.3z M-670.4,539.9v-32.4h207.2v32.4L-670.4,539.9L-670.4,539.9z
		 M-501.3,774.3c-21.2,0-38.4-17.2-38.4-38.4c0-21.2,17.2-38.4,38.4-38.4c21.2,0,38.4,17.2,38.4,38.4
		C-462.9,757-480.1,774.3-501.3,774.3z"/>
</g>
</svg>
