<?xml version="1.0" encoding="utf-8"?>
<!-- Generator: Adobe Illustrator 19.1.1, SVG Export Plug-In . SVG Version: 6.00 Build 0)  -->
<svg version="1.1" id="Layer_1" xmlns="http://www.w3.org/2000/svg" xmlns:xlink="http://www.w3.org/1999/xlink" x="0px" y="0px"
	 viewBox="0 0 84.6 80" style="enable-background:new 0 0 84.6 80;" xml:space="preserve">
<style type="text/css">
	.st0{fill:none;stroke:#FFFFFF;stroke-width:5;stroke-linecap:round;stroke-linejoin:round;stroke-miterlimit:10;}
	.st1{fill:#FFFFFF;}
</style>
<g>
	<polyline class="st0" points="21,35 36.1,52.9 82,13.9 	"/>
	<path class="st1" d="M79.8,36.2c-0.6-3.6-3.2-2.9-4.3-1.7c-0.4,0.5-0.9,2.3-0.8,3.6c0.1,2,0,3.2,0,3.2c-0.7,18.6-16,33.5-34.7,33.5
		c-19.2,0-34.8-15.6-34.8-34.8c0-19.2,15.6-34.8,34.8-34.8c7.5,0,14.4,2.4,20,6.4l0,0c0.3,0.3,0.7,0.6,1.2,0.7
		c3.5,1.2,4.3-1.5,3.8-3.2c-0.2-0.6-1.6-1.9-2.8-2.5C55.8,2.4,48.1,0,39.9,0C24.8,0,11.6,8.4,4.8,20.8C1.7,26.5,0,33,0,39.8
		C0,62,18,80,40.2,80c7.6,0,14.7-2.1,20.8-5.8c0,0,0.1,0,0.1-0.1c0.3-0.2,0.6-0.7,0.9-0.9c8.2-5.4,14.3-13.8,16.8-23.7
		c0.1-0.4,0.2-0.9,0.3-1.3c0,0,0-0.1,0-0.1c0.5-2.7,0.8-5.4,0.8-8.3C79.9,38.6,79.9,37.4,79.8,36.2z"/>
</g>
</svg>
