<?xml version="1.0" encoding="utf-8"?>
<!-- Generator: Adobe Illustrator 19.1.1, SVG Export Plug-In . SVG Version: 6.00 Build 0)  -->
<svg version="1.1" id="Capa_1" xmlns="http://www.w3.org/2000/svg" xmlns:xlink="http://www.w3.org/1999/xlink" x="0px" y="0px"
	 viewBox="-731 485.1 456 311.9" style="enable-background:new -731 485.1 456 311.9;" xml:space="preserve">
<style type="text/css">
	.st0{fill:#FFFFFF;}
</style>
<g>
	<path class="st0" d="M-291,485.1h-424c-8.8,0-16,7.2-16,16v247.8c0,8.8,7.2,16,16,16h168.3v16.1h-86.9c-4.4,0-8,3.6-8,8
		c0,4.4,3.6,8,8,8h263c4.4,0,8-3.6,8-8c0-4.4-3.6-8-8-8h-88v-16.1H-291c8.8,0,16-7.2,16-16V501.1C-275,492.2-282.2,485.1-291,485.1z
		 M-474.7,780.9h-56.1v-16.1h56.1V780.9z M-359.8,748.8L-533,575.6c-3.1-3.1-8.2-3.1-11.3,0c-3.1,3.1-3.1,8.2,0,11.3l161.9,161.9
		H-715V501.1h84.8l53.9,53.9c1.6,1.6,3.6,2.3,5.7,2.3c2,0,4.1-0.8,5.7-2.3c3.1-3.1,3.1-8.2,0-11.3l-42.6-42.6H-291l0,247.8
		L-359.8,748.8L-359.8,748.8z"/>
	<path class="st0" d="M-515.2,741.2h24.5c4.4,0,8-3.6,8-8c0-4.4-3.6-8-8-8h-24.5c-4.4,0-8,3.6-8,8
		C-523.2,737.6-519.7,741.2-515.2,741.2z"/>
</g>
</svg>
